<svg xmlns="http://www.w3.org/2000/svg" width="1200" height="630" viewBox="0 0 1200 630" fill="none">
  <rect width="1200" height="630" fill="#09090b"/>
  <circle cx="980" cy="120" r="220" fill="#34d399" fill-opacity="0.08"/>
  <circle cx="180" cy="520" r="260" fill="#14b8a6" fill-opacity="0.08"/>
  <rect x="80" y="80" width="1040" height="470" rx="32" stroke="#27272a" stroke-width="2"/>
  <rect x="120" y="120" width="72" height="72" rx="18" fill="url(#brand-gradient)"/>
  <path d="M138 152h36v24a6 6 0 0 1-6 6h-24a6 6 0 0 1-6-6v-24z" fill="#052e16" fill-opacity="0.25"/>
  <path d="M132 158h48" stroke="#052e16" stroke-opacity="0.25" stroke-width="3"/>
  <circle cx="162" cy="170" r="4" fill="#052e16" fill-opacity="0.35"/>
  <path d="M144 140h24a4 4 0 0 1 4 4v4h-32v-4a4 4 0 0 1 4-4z" fill="url(#brand-gradient)"/>
  <text x="210" y="158" fill="#ffffff" font-family="Segoe UI, Inter, system-ui, sans-serif" font-size="34" font-weight="700">Expense Tracker Dashboard</text>
  <text x="210" y="198" fill="#a1a1aa" font-family="Segoe UI, Inter, system-ui, sans-serif" font-size="22">Track spending, budgets, and analytics in one modern finance app.</text>
  <rect x="120" y="250" width="220" height="120" rx="20" fill="#18181b" stroke="#27272a" stroke-width="2"/>
  <text x="150" y="295" fill="#71717a" font-family="Segoe UI, Inter, system-ui, sans-serif" font-size="18">Total Expenses</text>
  <text x="150" y="340" fill="#34d399" font-family="Segoe UI, Inter, system-ui, sans-serif" font-size="34" font-weight="700">Budget Insights</text>
  <rect x="370" y="250" width="220" height="120" rx="20" fill="#18181b" stroke="#27272a" stroke-width="2"/>
  <text x="400" y="295" fill="#71717a" font-family="Segoe UI, Inter, system-ui, sans-serif" font-size="18">Monthly Budget</text>
  <text x="400" y="340" fill="#38bdf8" font-family="Segoe UI, Inter, system-ui, sans-serif" font-size="34" font-weight="700">Smart Tracking</text>
  <rect x="620" y="250" width="460" height="120" rx="20" fill="#18181b" stroke="#27272a" stroke-width="2"/>
  <text x="650" y="295" fill="#71717a" font-family="Segoe UI, Inter, system-ui, sans-serif" font-size="18">Features</text>
  <text x="650" y="340" fill="#e4e4e7" font-family="Segoe UI, Inter, system-ui, sans-serif" font-size="28" font-weight="600">Dashboard · Expenses · Analytics · Profile</text>
  <defs>
    <linearGradient id="brand-gradient" x1="120" y1="120" x2="192" y2="192" gradientUnits="userSpaceOnUse">
      <stop stop-color="#34d399"/>
      <stop offset="1" stop-color="#0d9488"/>
    </linearGradient>
  </defs>
</svg>
